<svg xmlns="http://www.w3.org/2000/svg" viewBox="0 0 62.5 15"><defs><style>.cls-1{fill:#fff;}</style></defs><g id="Layer_2" data-name="Layer 2"><g id="Layer_1-2" data-name="Layer 1"><polygon class="cls-1" points="10 0 10 15 5 15 5 5 0 5 0 0 10 0"/><polygon class="cls-1" points="25 0 25 15 20 15 20 10 17.5 10 17.5 15 12.5 15 12.5 0 17.5 0 17.5 5 20 5 20 0 25 0"/><rect class="cls-1" x="27.5" width="5" height="15"/><polygon class="cls-1" points="62.5 15 57.5 15 55 10 55 15 50 15 50 0 55 0 55 5 57.5 0 62.5 0 58.75 7.5 62.5 15"/><polygon class="cls-1" points="47.5 0 47.5 15 42.5 15 40 10 40 15 35 15 35 0 40 0 42.5 5 42.5 0 47.5 0"/></g></g></svg>