<svg width="24" height="25" viewBox="0 0 24 25" fill="none" xmlns="http://www.w3.org/2000/svg">
<path fill-rule="evenodd" clip-rule="evenodd" d="M12.0572 2.25C14.2479 2.24999 15.9686 2.24998 17.312 2.43059C18.6886 2.61568 19.7809 3.00272 20.6391 3.86091C21.4973 4.71911 21.8843 5.81137 22.0694 7.18802C22.25 8.53144 22.25 10.2521 22.25 12.4428V12.4428V12.5572V12.5572C22.25 14.7479 22.25 16.4686 22.0694 17.812C21.8843 19.1886 21.4973 20.2809 20.6391 21.1391C19.7809 21.9973 18.6886 22.3843 17.312 22.5694C15.9686 22.75 14.2479 22.75 12.0572 22.75H12.0572H11.9428H11.9428C9.7521 22.75 8.03144 22.75 6.68802 22.5694C5.31137 22.3843 4.21911 21.9973 3.36091 21.1391C2.50272 20.2809 2.11568 19.1886 1.93059 17.812C1.74998 16.4686 1.74999 14.7479 1.75 12.5572V12.4428C1.74999 10.2521 1.74998 8.53144 1.93059 7.18802C2.11568 5.81137 2.50272 4.71911 3.36091 3.86091C4.21911 3.00272 5.31137 2.61568 6.68802 2.43059C8.03144 2.24998 9.75212 2.24999 11.9428 2.25H12.0572ZM7 15.75C7.41421 15.75 7.75 16.0858 7.75 16.5V18.5C7.75 18.9142 7.41421 19.25 7 19.25C6.58579 19.25 6.25 18.9142 6.25 18.5V16.5C6.25 16.0858 6.58579 15.75 7 15.75ZM12.75 15.5C12.75 15.0858 12.4142 14.75 12 14.75C11.5858 14.75 11.25 15.0858 11.25 15.5V18.5C11.25 18.9142 11.5858 19.25 12 19.25C12.4142 19.25 12.75 18.9142 12.75 18.5V15.5ZM17 12.75C17.4142 12.75 17.75 13.0858 17.75 13.5V18.5C17.75 18.9142 17.4142 19.25 17 19.25C16.5858 19.25 16.25 18.9142 16.25 18.5V13.5C16.25 13.0858 16.5858 12.75 17 12.75ZM15.8589 5.75228C16.0902 5.74173 16.3693 5.76295 16.6447 5.91952C16.9304 6.08187 17.0889 6.31911 17.1891 6.54105C17.2714 6.72343 17.335 6.94564 17.393 7.14856L17.393 7.14858L17.4029 7.18297L17.721 8.29345C17.8351 8.69164 17.6048 9.10692 17.2066 9.221C16.8084 9.33508 16.3931 9.10476 16.279 8.70656L16.1323 8.19448C13.8986 11.4059 10.322 12.75 6 12.75C5.58579 12.75 5.25 12.4142 5.25 12C5.25 11.5858 5.58579 11.25 6 11.25C9.95263 11.25 12.9634 10.0578 14.8459 7.41538L14.1221 7.53478C13.7134 7.6022 13.3274 7.32554 13.26 6.91685C13.1926 6.50815 13.4692 6.1222 13.8779 6.05478L15.1456 5.84568L15.1788 5.84021C15.4162 5.80098 15.6546 5.7616 15.8589 5.75228Z" fill="#371A5B"/>
</svg>
