<svg id="Layer_1" data-name="Layer 1" xmlns="http://www.w3.org/2000/svg" viewBox="0 0 11.58 11.61"><defs><style>.cls-1{fill:#fff;}</style></defs><path class="cls-1" d="M3.7,13.1l7.9-7.9v6.9a1,1,0,0,0,1,1,1,1,0,0,0,.38-.06,1.07,1.07,0,0,0,.53-.54,1,1,0,0,0,.08-.39V2.8a1,1,0,0,0-.08-.37.92.92,0,0,0-.19-.35,1,1,0,0,0-.7-.29H3.28a1,1,0,0,0-.39.08,1.09,1.09,0,0,0-.54.54,1,1,0,0,0,0,.76.87.87,0,0,0,.22.32,1,1,0,0,0,.32.23,1.23,1.23,0,0,0,.39.07h6.9l-7.89,7.9A1,1,0,1,0,3.7,13.1Z" transform="translate(-1.99 -1.78)"/></svg>