<svg width="175" height="56" viewBox="0 0 175 56" fill="none" xmlns="http://www.w3.org/2000/svg">
<rect x="0.5" y="0.5" width="174" height="55" rx="27.5" fill="white"/>
<rect x="0.5" y="0.5" width="174" height="55" rx="27.5" stroke="#CDD2D8"/>
<path fill-rule="evenodd" clip-rule="evenodd" d="M36.1627 20.9351C35.5539 22.1811 35.15 23.9704 35.15 26C35.15 28.0296 35.5539 29.8189 36.1627 31.0649C36.7999 32.3691 37.5043 32.8056 38 32.8056C38.4957 32.8056 39.2001 32.3691 39.8373 31.0649C40.4461 29.8189 40.85 28.0296 40.85 26C40.85 23.9704 40.4461 22.1811 39.8373 20.9351C39.2001 19.6309 38.4957 19.1944 38 19.1944C37.5043 19.1944 36.7999 19.6309 36.1627 20.9351ZM34.4633 20.0655C35.2014 18.5546 36.397 17.25 38 17.25C39.603 17.25 40.7986 18.5546 41.5367 20.0655C42.3033 21.6345 42.75 23.734 42.75 26C42.75 28.266 42.3033 30.3655 41.5367 31.9345C40.7986 33.4454 39.603 34.75 38 34.75C36.397 34.75 35.2014 33.4454 34.4633 31.9345C33.6967 30.3655 33.25 28.266 33.25 26C33.25 23.734 33.6967 21.6345 34.4633 20.0655Z" fill="#371A5B"/>
<path d="M31.3805 18.6584C33.8327 17.8812 36.3184 17.25 38 17.25C38.4142 17.25 38.75 17.5858 38.75 18C38.75 18.4142 38.4142 18.75 38 18.75C37.3326 18.75 36.5264 19.3106 35.8424 20.6786C35.1808 22.0017 34.75 23.882 34.75 26C34.75 28.118 35.1808 29.9983 35.8424 31.3214C36.5264 32.6894 37.3326 33.25 38 33.25C38.4142 33.25 38.75 33.5858 38.75 34C38.75 34.4142 38.4142 34.75 38 34.75C36.3184 34.75 33.8327 34.1188 31.3805 33.3416C28.8981 32.5549 26.3477 31.5839 24.4928 30.8427C22.5064 30.049 21.25 28.1177 21.25 26C21.25 23.8823 22.5064 21.951 24.4928 21.1573C26.3477 20.4161 28.8981 19.4451 31.3805 18.6584Z" fill="#371A5B"/>
<path fill-rule="evenodd" clip-rule="evenodd" d="M26.1684 29.7577C26.7165 29.8256 27.1058 30.3249 27.0379 30.873C26.7888 32.8841 27.7849 34.8388 29.539 35.8044L31.4822 36.8741C31.9661 37.1404 32.1424 37.7485 31.8761 38.2323C31.6097 38.7162 31.0016 38.8925 30.5178 38.6261L28.5745 37.5565C26.0971 36.1927 24.7043 33.4428 25.0531 30.6272C25.1209 30.0791 25.6203 29.6898 26.1684 29.7577Z" fill="#371A5B"/>
<path d="M64.816 36.976L53.104 37V35.2L58.696 30.376C61.504 27.952 62.296 26.776 62.296 24.928C62.296 22.744 61.048 21.448 58.96 21.448C56.824 21.448 55.432 23.008 55.384 25.48H53.032C53.104 21.76 55.456 19.336 58.984 19.336C62.464 19.336 64.696 21.448 64.696 24.784C64.696 27.256 63.472 29.008 60.4 31.672L56.8 34.792H64.816V36.976ZM71.0424 28.024H69.3144V26.464L74.2344 21.736H66.4344V19.648H77.2104V21.544L72.4584 26.08C75.4104 26.44 77.6424 28.432 77.6424 31.552C77.6424 35.056 75.0024 37.288 71.4744 37.288C68.0664 37.288 65.6184 35.2 65.6184 31.6H67.9464C67.9464 33.856 69.3384 35.176 71.5224 35.176C73.7784 35.176 75.2424 33.736 75.2424 31.504C75.2424 29.416 73.8024 28.024 71.0424 28.024ZM85.1176 37V19.648H91.7416C95.1256 19.648 97.1896 21.376 97.1896 24.232C97.1896 26.224 96.3256 27.568 94.5976 28.288C96.5176 28.912 97.5016 30.304 97.5016 32.368C97.5016 35.248 95.4136 37 91.9816 37H85.1176ZM91.5976 21.736H87.4696V27.304H91.7416C93.6856 27.304 94.7896 26.248 94.7896 24.448C94.7896 22.72 93.6376 21.736 91.5976 21.736ZM91.9336 29.344H87.4696V34.912H91.9336C93.9496 34.912 95.0776 33.88 95.0776 32.08C95.0776 30.352 93.9256 29.344 91.9336 29.344ZM105.782 25.168V27.232H104.774C102.638 27.232 101.318 28.528 101.318 30.784V37H99.0617V25.288H101.174L101.318 27.064C101.798 25.84 102.974 25.024 104.582 25.024C104.99 25.024 105.326 25.072 105.782 25.168ZM109.861 37.288C107.341 37.288 105.853 35.872 105.853 33.736C105.853 31.576 107.461 30.232 110.221 30.016L113.917 29.728V29.392C113.917 27.424 112.741 26.728 111.157 26.728C109.261 26.728 108.181 27.568 108.181 28.984H106.213C106.213 26.536 108.229 24.928 111.253 24.928C114.157 24.928 116.125 26.464 116.125 29.632V37H114.205L113.965 35.104C113.365 36.448 111.757 37.288 109.861 37.288ZM110.509 35.536C112.645 35.536 113.941 34.144 113.941 31.936V31.312L110.941 31.552C108.949 31.744 108.133 32.512 108.133 33.664C108.133 34.912 109.045 35.536 110.509 35.536ZM120.505 37H118.249V25.264H120.289L120.529 27.064C121.273 25.72 122.761 24.928 124.417 24.928C127.513 24.928 128.929 26.824 128.929 29.824V37H126.673V30.328C126.673 27.952 125.569 26.992 123.841 26.992C121.729 26.992 120.505 28.504 120.505 30.784V37ZM135.758 37.288C132.35 37.288 130.286 34.744 130.286 31.168C130.286 27.568 132.374 24.928 135.854 24.928C137.654 24.928 139.166 25.72 139.958 27.16V19.336H142.19V37H140.174L139.982 34.864C139.214 36.472 137.63 37.288 135.758 37.288ZM136.214 35.248C138.518 35.248 139.934 33.544 139.934 31.096C139.934 28.696 138.518 26.968 136.214 26.968C133.91 26.968 132.566 28.696 132.566 31.096C132.566 33.52 133.91 35.248 136.214 35.248ZM143.485 33.592H145.645C145.645 34.792 146.557 35.512 148.045 35.512C149.629 35.512 150.541 34.864 150.541 33.784C150.541 32.992 150.157 32.512 148.933 32.2L146.869 31.72C144.781 31.216 143.797 30.184 143.797 28.456C143.797 26.296 145.621 24.928 148.213 24.928C150.781 24.928 152.461 26.368 152.509 28.6H150.349C150.301 27.424 149.509 26.68 148.141 26.68C146.725 26.68 145.933 27.304 145.933 28.384C145.933 29.176 146.509 29.704 147.661 29.992L149.725 30.496C151.717 30.976 152.701 31.888 152.701 33.64C152.701 35.872 150.781 37.288 147.997 37.288C145.237 37.288 143.485 35.824 143.485 33.592Z" fill="#371A5B"/>
</svg>
