<svg width="24" height="25" viewBox="0 0 24 25" fill="none" xmlns="http://www.w3.org/2000/svg">
<path fill-rule="evenodd" clip-rule="evenodd" d="M1.25 12.0667C1.25 6.33838 6.09523 1.75 12 1.75C17.9048 1.75 22.75 6.33838 22.75 12.0667C22.75 17.795 17.9048 22.3834 12 22.3834C11.3041 22.3843 10.6103 22.3199 9.92698 22.1916C9.68979 22.147 9.53909 22.1189 9.42696 22.1036C9.34334 22.0907 9.25931 22.1219 9.22775 22.1391C9.11322 22.1935 8.96068 22.2744 8.72714 22.3986C7.29542 23.16 5.62504 23.43 4.01396 23.1303C3.75381 23.0819 3.5384 22.9 3.44713 22.6517C3.35586 22.4033 3.40224 22.1252 3.56917 21.9199C4.03697 21.3445 4.35863 20.6513 4.50088 19.9052C4.53937 19.7 4.45227 19.4213 4.18451 19.1494C2.36972 17.3065 1.25 14.8144 1.25 12.0667ZM11 9.75824C11 9.45663 11.3228 9 12 9C12.6772 9 13 9.45663 13 9.75824C13 9.88027 12.9608 10.0021 12.8762 10.1178C12.7622 10.2734 12.6156 10.4397 12.4303 10.6422L12.3414 10.739C12.1863 10.9076 12.0087 11.1007 11.847 11.296C11.4761 11.7443 11 12.4172 11 13.2747V13.7143C11 14.2666 11.4477 14.7143 12 14.7143C12.5523 14.7143 13 14.2666 13 13.7143V13.2747C13 13.1612 13.0666 12.9593 13.3878 12.5712C13.5131 12.4198 13.6484 12.2726 13.8027 12.1046L13.9056 11.9925C14.092 11.7889 14.3051 11.5517 14.4901 11.299C14.8065 10.8667 15 10.3363 15 9.75824C15 8.11775 13.5319 7 12 7C10.4681 7 9 8.11775 9 9.75824C9 10.3105 9.44771 10.7582 10 10.7582C10.5523 10.7582 11 10.3105 11 9.75824ZM12 16C11.4477 16 11 16.4477 11 17C11 17.5523 11.4477 18 12 18H12.012C12.5643 18 13.012 17.5523 13.012 17C13.012 16.4477 12.5643 16 12.012 16H12Z" fill="#945FEE"/>
</svg>
