<svg width="24" height="26" viewBox="0 0 24 26" fill="none" xmlns="http://www.w3.org/2000/svg">
<g clip-path="url(#clip0_1_1031)">
<g clip-path="url(#clip1_1_1031)">
<path fill-rule="evenodd" clip-rule="evenodd" d="M12.0572 3.1499C14.2479 3.14989 15.9686 3.14988 17.312 3.33049C18.6886 3.51558 19.7809 3.90262 20.6391 4.76081C21.4973 5.61901 21.8843 6.71127 22.0694 8.08792C22.25 9.43134 22.25 11.152 22.25 13.3427V13.4571C22.25 15.6478 22.25 17.3685 22.0694 18.7119C21.8843 20.0885 21.4973 21.1808 20.6391 22.039C19.7809 22.8972 18.6886 23.2842 17.312 23.4693C15.9686 23.6499 14.2479 23.6499 12.0572 23.6499H11.9428C9.7521 23.6499 8.03144 23.6499 6.68802 23.4693C5.31137 23.2842 4.21911 22.8972 3.36091 22.039C2.50272 21.1808 2.11568 20.0885 1.93059 18.7119C1.74998 17.3685 1.74999 15.6478 1.75 13.4571V13.3427C1.74999 11.152 1.74998 9.43134 1.93059 8.08792C2.11568 6.71127 2.50272 5.61901 3.36091 4.76081C4.21911 3.90262 5.31137 3.51558 6.68802 3.33049C8.03144 3.14988 9.75212 3.14989 11.9428 3.1499H12.0572ZM7 16.6499C7.41421 16.6499 7.75 16.9857 7.75 17.3999V19.3999C7.75 19.8141 7.41421 20.1499 7 20.1499C6.58579 20.1499 6.25 19.8141 6.25 19.3999V17.3999C6.25 16.9857 6.58579 16.6499 7 16.6499ZM12.75 16.3999C12.75 15.9857 12.4142 15.6499 12 15.6499C11.5858 15.6499 11.25 15.9857 11.25 16.3999V19.3999C11.25 19.8141 11.5858 20.1499 12 20.1499C12.4142 20.1499 12.75 19.8141 12.75 19.3999V16.3999ZM17 13.6499C17.4142 13.6499 17.75 13.9857 17.75 14.3999V19.3999C17.75 19.8141 17.4142 20.1499 17 20.1499C16.5858 20.1499 16.25 19.8141 16.25 19.3999V14.3999C16.25 13.9857 16.5858 13.6499 17 13.6499ZM15.8589 6.65218C16.0902 6.64163 16.3693 6.66285 16.6447 6.81942C16.9304 6.98177 17.0889 7.21901 17.1891 7.44095C17.2714 7.62333 17.335 7.84554 17.393 8.04846L17.4029 8.08287L17.721 9.19335C17.8351 9.59154 17.6048 10.0068 17.2066 10.1209C16.8084 10.235 16.3931 10.0047 16.279 9.60646L16.1323 9.09438C13.8986 12.3058 10.322 13.6499 6 13.6499C5.58579 13.6499 5.25 13.3141 5.25 12.8999C5.25 12.4857 5.58579 12.1499 6 12.1499C9.95263 12.1499 12.9634 10.9577 14.8459 8.31528L14.1221 8.43468C13.7134 8.5021 13.3274 8.22544 13.26 7.81675C13.1926 7.40805 13.4692 7.0221 13.8779 6.95468L15.1456 6.74558L15.1788 6.74011C15.4162 6.70088 15.6546 6.6615 15.8589 6.65218Z" fill="#945FEE"/>
</g>
</g>
<defs>
<clipPath id="clip0_1_1031">
<rect width="24" height="25" fill="white" transform="translate(0 0.899902)"/>
</clipPath>
<clipPath id="clip1_1_1031">
<rect width="24" height="25" fill="white" transform="translate(0 0.899902)"/>
</clipPath>
</defs>
</svg>
