<svg width="96" height="34" viewBox="0 0 96 34" fill="none" xmlns="http://www.w3.org/2000/svg">
<rect width="96" height="34" rx="17" fill="url(#paint0_linear_7_21)"/>
<path d="M26.42 19.94C26.096 20.816 25.514 21.56 24.674 22.172C23.834 22.784 22.754 23.09 21.434 23.09C20.006 23.09 18.782 22.79 17.762 22.19C16.754 21.578 15.992 20.786 15.476 19.814C14.972 18.83 14.72 17.786 14.72 16.682C14.72 15.578 14.972 14.54 15.476 13.568C15.992 12.584 16.748 11.792 17.744 11.192C18.752 10.58 19.958 10.274 21.362 10.274C22.754 10.274 23.87 10.58 24.71 11.192C25.55 11.804 26.108 12.548 26.384 13.424L25.142 13.442C24.914 12.638 24.488 11.96 23.864 11.408C23.252 10.844 22.454 10.562 21.47 10.562C20.39 10.562 19.472 10.826 18.716 11.354C17.972 11.87 17.408 12.56 17.024 13.424C16.652 14.276 16.466 15.2 16.466 16.196C16.466 17.204 16.658 18.17 17.042 19.094C17.426 20.018 17.99 20.786 18.734 21.398C19.49 22.01 20.384 22.364 21.416 22.46C21.572 22.484 21.8 22.496 22.1 22.496C23.096 22.496 23.936 22.25 24.62 21.758C25.304 21.254 25.796 20.642 26.096 19.922L26.42 19.94ZM31.9445 13.154C32.1485 13.106 32.3825 13.082 32.6465 13.082C33.2825 13.082 33.8345 13.25 34.3025 13.586C34.7705 13.922 35.0765 14.414 35.2205 15.062H33.5645C33.4685 14.57 33.2705 14.216 32.9705 14C32.6825 13.784 32.3345 13.676 31.9265 13.676C31.3505 13.676 30.8465 13.85 30.4145 14.198C29.9945 14.534 29.6465 14.918 29.3705 15.35C29.3465 17.054 29.3345 18.326 29.3345 19.166C29.3345 20.018 29.3465 21.296 29.3705 23H27.5345C27.5705 21.488 27.5885 19.988 27.5885 18.5C27.5885 16.988 27.5705 15.488 27.5345 14H29.4065C29.3945 14.216 29.3885 14.534 29.3885 14.954C29.6405 14.57 29.9825 14.204 30.4145 13.856C30.8465 13.496 31.3565 13.262 31.9445 13.154ZM40.2152 22.514C40.9952 22.514 41.6312 22.316 42.1232 21.92C42.6152 21.512 42.9452 21.014 43.1132 20.426H43.3832C43.2032 21.098 42.8312 21.686 42.2672 22.19C41.7032 22.682 40.9532 22.97 40.0172 23.054C39.7292 23.078 39.5192 23.09 39.3872 23.09C38.3792 23.09 37.5152 22.88 36.7952 22.46C36.0872 22.028 35.5532 21.47 35.1932 20.786C34.8452 20.09 34.6712 19.346 34.6712 18.554C34.6712 17.75 34.8512 16.994 35.2112 16.286C35.5832 15.566 36.1292 14.984 36.8492 14.54C37.5812 14.096 38.4512 13.874 39.4592 13.874C40.3712 13.874 41.1212 14.054 41.7092 14.414C42.2972 14.774 42.7232 15.218 42.9872 15.746C43.2632 16.262 43.4012 16.772 43.4012 17.276L43.4192 17.618L36.3632 17.978C36.3512 18.746 36.4892 19.478 36.7772 20.174C37.0652 20.87 37.5032 21.434 38.0912 21.866C38.6792 22.298 39.3872 22.514 40.2152 22.514ZM39.5312 14.108C38.6072 14.108 37.8692 14.45 37.3172 15.134C36.7652 15.806 36.4532 16.64 36.3812 17.636L42.1412 17.348C42.1412 16.748 41.9792 16.064 41.6552 15.296C41.3432 14.516 40.6352 14.12 39.5312 14.108ZM53.2805 18.86V19.922C53.2805 20.75 53.2985 21.344 53.3345 21.704C53.3705 22.064 53.4545 22.316 53.5865 22.46C53.7185 22.604 53.9345 22.676 54.2345 22.676V23C54.1145 23.012 53.9405 23.018 53.7125 23.018C53.1125 23.018 52.6565 22.922 52.3445 22.73C52.0325 22.538 51.8285 22.292 51.7325 21.992C51.6485 21.692 51.6005 21.314 51.5885 20.858C51.3125 21.386 50.8385 21.896 50.1665 22.388C49.4945 22.868 48.5645 23.096 47.3765 23.072C46.8005 23.06 46.2965 22.928 45.8645 22.676C45.4325 22.424 45.1025 22.094 44.8745 21.686C44.6465 21.278 44.5325 20.84 44.5325 20.372C44.5325 19.82 44.6945 19.298 45.0185 18.806C45.3545 18.314 45.8525 17.918 46.5125 17.618C47.2805 17.27 48.0485 17.036 48.8165 16.916C49.5845 16.784 50.4785 16.694 51.4985 16.646C51.3905 15.818 51.1565 15.194 50.7965 14.774C50.4365 14.342 49.9205 14.126 49.2485 14.126C48.7205 14.126 48.2705 14.276 47.8985 14.576C47.5265 14.876 47.2565 15.242 47.0885 15.674L45.7565 15.656C45.9485 15.164 46.3265 14.75 46.8905 14.414C47.4665 14.078 48.2225 13.91 49.1585 13.91C50.5865 13.91 51.6245 14.27 52.2725 14.99C52.9325 15.698 53.2685 16.742 53.2805 18.122V18.86ZM48.5825 22.406C49.3985 22.406 50.0465 22.184 50.5265 21.74C51.0185 21.284 51.3725 20.81 51.5885 20.318V18.41C51.5885 17.798 51.5645 17.282 51.5165 16.862C50.5805 16.934 49.8365 17.018 49.2845 17.114C48.7325 17.198 48.1805 17.384 47.6285 17.672C47.1725 17.924 46.8245 18.272 46.5845 18.716C46.3445 19.148 46.2245 19.604 46.2245 20.084C46.2245 20.732 46.4345 21.284 46.8545 21.74C47.2745 22.184 47.8505 22.406 48.5825 22.406ZM59.9868 14.324H57.5028L57.4848 20.354C57.4848 20.99 57.5148 21.476 57.5748 21.812C57.6468 22.136 57.7968 22.376 58.0248 22.532C58.2648 22.688 58.6308 22.76 59.1228 22.748V23C58.3788 23.024 57.7668 22.976 57.2868 22.856C56.8068 22.736 56.4288 22.478 56.1528 22.082C55.8768 21.686 55.7388 21.104 55.7388 20.336V14.324H54.6048V14.018H55.7388V11.678L57.5208 10.526L57.5028 14.018H59.9868V14.324ZM61.5366 9.878C61.8006 9.878 62.0286 9.98 62.2206 10.184C62.4126 10.376 62.5086 10.61 62.5086 10.886C62.5086 11.15 62.4126 11.378 62.2206 11.57C62.0286 11.762 61.8006 11.858 61.5366 11.858C61.2606 11.858 61.0206 11.762 60.8166 11.57C60.6246 11.378 60.5286 11.15 60.5286 10.886C60.5286 10.61 60.6246 10.376 60.8166 10.184C61.0206 9.98 61.2606 9.878 61.5366 9.878ZM60.6546 23C60.6906 21.488 60.7086 19.988 60.7086 18.5C60.7086 16.988 60.6906 15.488 60.6546 14H62.5266C62.4786 15.5 62.4546 17.192 62.4546 19.076C62.4546 19.94 62.4666 21.248 62.4906 23H60.6546ZM71.1186 14H71.5866L68.3826 23H67.7526C66.8886 20.708 65.6466 17.702 64.0266 13.982H65.8626C66.3306 15.206 67.0686 17.042 68.0766 19.49L68.6706 20.93L71.1186 14ZM77.4984 22.514C78.2784 22.514 78.9144 22.316 79.4064 21.92C79.8984 21.512 80.2284 21.014 80.3964 20.426H80.6664C80.4864 21.098 80.1144 21.686 79.5504 22.19C78.9864 22.682 78.2364 22.97 77.3004 23.054C77.0124 23.078 76.8024 23.09 76.6704 23.09C75.6624 23.09 74.7984 22.88 74.0784 22.46C73.3704 22.028 72.8364 21.47 72.4764 20.786C72.1284 20.09 71.9544 19.346 71.9544 18.554C71.9544 17.75 72.1344 16.994 72.4944 16.286C72.8664 15.566 73.4124 14.984 74.1324 14.54C74.8644 14.096 75.7344 13.874 76.7424 13.874C77.6544 13.874 78.4044 14.054 78.9924 14.414C79.5804 14.774 80.0064 15.218 80.2704 15.746C80.5464 16.262 80.6844 16.772 80.6844 17.276L80.7024 17.618L73.6464 17.978C73.6344 18.746 73.7724 19.478 74.0604 20.174C74.3484 20.87 74.7864 21.434 75.3744 21.866C75.9624 22.298 76.6704 22.514 77.4984 22.514ZM76.8144 14.108C75.8904 14.108 75.1524 14.45 74.6004 15.134C74.0484 15.806 73.7364 16.64 73.6644 17.636L79.4244 17.348C79.4244 16.748 79.2624 16.064 78.9384 15.296C78.6264 14.516 77.9184 14.12 76.8144 14.108Z" fill="white"/>
<path d="M14 24L14.449 25.382H15.9021L14.7265 26.2361L15.1756 27.618L14 26.7639L12.8244 27.618L13.2735 26.2361L12.0979 25.382H13.551L14 24Z" fill="white"/>
<path d="M7 18L7.22451 18.691H7.95106L7.36327 19.118L7.58779 19.809L7 19.382L6.41221 19.809L6.63673 19.118L6.04894 18.691H6.77549L7 18Z" fill="white"/>
<path d="M15.5 6L15.6123 6.34549H15.9755L15.6816 6.55902L15.7939 6.90451L15.5 6.69098L15.2061 6.90451L15.3184 6.55902L15.0245 6.34549H15.3877L15.5 6Z" fill="white"/>
<path d="M21 29L21.2245 29.691H21.9511L21.3633 30.118L21.5878 30.809L21 30.382L20.4122 30.809L20.6367 30.118L20.0489 29.691H20.7755L21 29Z" fill="white"/>
<path d="M86 6L86.449 7.38197H87.9021L86.7265 8.23607L87.1756 9.61803L86 8.76393L84.8244 9.61803L85.2735 8.23607L84.0979 7.38197H85.551L86 6Z" fill="white"/>
<defs>
<linearGradient id="paint0_linear_7_21" x1="-19" y1="-7.00001" x2="99.3049" y2="37.354" gradientUnits="userSpaceOnUse">
<stop stop-color="#2E971C"/>
<stop offset="1" stop-color="#E3CC00"/>
</linearGradient>
</defs>
</svg>
