<svg width="96" height="34" viewBox="0 0 96 34" fill="none" xmlns="http://www.w3.org/2000/svg">
<rect width="96" height="34" rx="17" fill="url(#paint0_linear_1_20)"/>
<path d="M16.574 10.796C16.538 12.428 16.52 14.192 16.52 16.088V17.33H20.966V17.744H16.52C16.52 19.808 16.544 21.56 16.592 23H14.72C14.78 20.864 14.81 18.764 14.81 16.7C14.81 14.624 14.78 12.524 14.72 10.4H22.73V10.796H16.574ZM26.049 9.392C26.001 11.084 25.977 13.352 25.977 16.196C25.977 19.016 26.001 21.284 26.049 23H24.177C24.237 20.864 24.267 18.596 24.267 16.196C24.267 13.784 24.237 11.516 24.177 9.392H26.049ZM36.2297 18.86V19.922C36.2297 20.75 36.2477 21.344 36.2837 21.704C36.3197 22.064 36.4037 22.316 36.5357 22.46C36.6677 22.604 36.8837 22.676 37.1837 22.676V23C37.0637 23.012 36.8897 23.018 36.6617 23.018C36.0617 23.018 35.6057 22.922 35.2937 22.73C34.9817 22.538 34.7777 22.292 34.6817 21.992C34.5977 21.692 34.5497 21.314 34.5377 20.858C34.2617 21.386 33.7877 21.896 33.1157 22.388C32.4437 22.868 31.5137 23.096 30.3257 23.072C29.7497 23.06 29.2457 22.928 28.8137 22.676C28.3817 22.424 28.0517 22.094 27.8237 21.686C27.5957 21.278 27.4817 20.84 27.4817 20.372C27.4817 19.82 27.6437 19.298 27.9677 18.806C28.3037 18.314 28.8017 17.918 29.4617 17.618C30.2297 17.27 30.9977 17.036 31.7657 16.916C32.5337 16.784 33.4277 16.694 34.4477 16.646C34.3397 15.818 34.1057 15.194 33.7457 14.774C33.3857 14.342 32.8697 14.126 32.1977 14.126C31.6697 14.126 31.2197 14.276 30.8477 14.576C30.4757 14.876 30.2057 15.242 30.0377 15.674L28.7057 15.656C28.8977 15.164 29.2757 14.75 29.8397 14.414C30.4157 14.078 31.1717 13.91 32.1077 13.91C33.5357 13.91 34.5737 14.27 35.2217 14.99C35.8817 15.698 36.2177 16.742 36.2297 18.122V18.86ZM31.5317 22.406C32.3477 22.406 32.9957 22.184 33.4757 21.74C33.9677 21.284 34.3217 20.81 34.5377 20.318V18.41C34.5377 17.798 34.5137 17.282 34.4657 16.862C33.5297 16.934 32.7857 17.018 32.2337 17.114C31.6817 17.198 31.1297 17.384 30.5777 17.672C30.1217 17.924 29.7737 18.272 29.5337 18.716C29.2937 19.148 29.1737 19.604 29.1737 20.084C29.1737 20.732 29.3837 21.284 29.8037 21.74C30.2237 22.184 30.7997 22.406 31.5317 22.406ZM49.7806 14H50.2486L47.1166 23H46.4866C45.8026 21.152 44.9446 19.04 43.9126 16.664L41.7166 23H41.0866C40.2226 20.708 38.9806 17.702 37.3606 13.982H39.1966C39.8326 15.662 40.7626 17.966 41.9866 20.894L43.6606 16.07L42.7606 13.982H44.5966C45.2086 15.578 45.8866 17.264 46.6306 19.04L47.3866 20.912L49.7806 14ZM53.5588 9.392C53.5108 11.084 53.4868 13.352 53.4868 16.196C53.4868 19.016 53.5108 21.284 53.5588 23H51.6868C51.7468 20.864 51.7768 18.596 51.7768 16.196C51.7768 13.784 51.7468 11.516 51.6868 9.392H53.5588ZM60.5355 22.514C61.3155 22.514 61.9515 22.316 62.4435 21.92C62.9355 21.512 63.2655 21.014 63.4335 20.426H63.7035C63.5235 21.098 63.1515 21.686 62.5875 22.19C62.0235 22.682 61.2735 22.97 60.3375 23.054C60.0495 23.078 59.8395 23.09 59.7075 23.09C58.6995 23.09 57.8355 22.88 57.1155 22.46C56.4075 22.028 55.8735 21.47 55.5135 20.786C55.1655 20.09 54.9915 19.346 54.9915 18.554C54.9915 17.75 55.1715 16.994 55.5315 16.286C55.9035 15.566 56.4495 14.984 57.1695 14.54C57.9015 14.096 58.7715 13.874 59.7795 13.874C60.6915 13.874 61.4415 14.054 62.0295 14.414C62.6175 14.774 63.0435 15.218 63.3075 15.746C63.5835 16.262 63.7215 16.772 63.7215 17.276L63.7395 17.618L56.6835 17.978C56.6715 18.746 56.8095 19.478 57.0975 20.174C57.3855 20.87 57.8235 21.434 58.4115 21.866C58.9995 22.298 59.7075 22.514 60.5355 22.514ZM59.8515 14.108C58.9275 14.108 58.1895 14.45 57.6375 15.134C57.0855 15.806 56.7735 16.64 56.7015 17.636L62.4615 17.348C62.4615 16.748 62.2995 16.064 61.9755 15.296C61.6635 14.516 60.9555 14.12 59.8515 14.108ZM71.7648 15.764C71.5488 15.308 71.1888 14.924 70.6848 14.612C70.1928 14.288 69.5808 14.126 68.8488 14.126C68.2248 14.126 67.6848 14.294 67.2288 14.63C66.7728 14.954 66.5448 15.35 66.5448 15.818C66.5448 16.046 66.6108 16.28 66.7428 16.52C66.9108 16.796 67.1748 17.03 67.5348 17.222C67.9068 17.414 68.4228 17.636 69.0828 17.888C69.9228 18.212 70.5708 18.506 71.0268 18.77C71.4948 19.034 71.8188 19.388 71.9988 19.832C72.1068 20.084 72.1608 20.342 72.1608 20.606C72.1608 21.05 72.0108 21.47 71.7108 21.866C71.4228 22.25 71.0148 22.562 70.4868 22.802C69.9708 23.042 69.3828 23.162 68.7228 23.162C67.5468 23.162 66.6408 22.934 66.0048 22.478C65.3688 22.022 64.9848 21.47 64.8528 20.822L65.1228 20.84C65.3388 21.404 65.7288 21.884 66.2928 22.28C66.8568 22.676 67.5828 22.874 68.4708 22.874C69.1548 22.874 69.6948 22.718 70.0908 22.406C70.4988 22.094 70.7028 21.716 70.7028 21.272C70.7028 20.96 70.5948 20.654 70.3788 20.354C70.1988 20.09 69.9228 19.868 69.5508 19.688C69.1908 19.496 68.6508 19.256 67.9308 18.968C67.0308 18.644 66.3348 18.332 65.8428 18.032C65.3508 17.732 65.0628 17.348 64.9788 16.88C64.9548 16.712 64.9428 16.586 64.9428 16.502C64.9428 16.01 65.1108 15.566 65.4468 15.17C65.7828 14.762 66.2328 14.444 66.7968 14.216C67.3728 13.976 67.9848 13.856 68.6328 13.856C69.5808 13.856 70.3428 14.042 70.9188 14.414C71.4948 14.786 71.8728 15.236 72.0528 15.764H71.7648ZM80.5363 15.764C80.3203 15.308 79.9603 14.924 79.4563 14.612C78.9643 14.288 78.3523 14.126 77.6203 14.126C76.9963 14.126 76.4563 14.294 76.0003 14.63C75.5443 14.954 75.3163 15.35 75.3163 15.818C75.3163 16.046 75.3823 16.28 75.5143 16.52C75.6823 16.796 75.9463 17.03 76.3063 17.222C76.6783 17.414 77.1943 17.636 77.8543 17.888C78.6943 18.212 79.3423 18.506 79.7983 18.77C80.2663 19.034 80.5903 19.388 80.7703 19.832C80.8783 20.084 80.9323 20.342 80.9323 20.606C80.9323 21.05 80.7823 21.47 80.4823 21.866C80.1943 22.25 79.7863 22.562 79.2583 22.802C78.7423 23.042 78.1543 23.162 77.4943 23.162C76.3183 23.162 75.4123 22.934 74.7763 22.478C74.1403 22.022 73.7563 21.47 73.6243 20.822L73.8943 20.84C74.1103 21.404 74.5003 21.884 75.0643 22.28C75.6283 22.676 76.3543 22.874 77.2423 22.874C77.9263 22.874 78.4663 22.718 78.8623 22.406C79.2703 22.094 79.4743 21.716 79.4743 21.272C79.4743 20.96 79.3663 20.654 79.1503 20.354C78.9703 20.09 78.6943 19.868 78.3223 19.688C77.9623 19.496 77.4223 19.256 76.7023 18.968C75.8023 18.644 75.1063 18.332 74.6143 18.032C74.1223 17.732 73.8343 17.348 73.7503 16.88C73.7263 16.712 73.7143 16.586 73.7143 16.502C73.7143 16.01 73.8823 15.566 74.2183 15.17C74.5543 14.762 75.0043 14.444 75.5683 14.216C76.1443 13.976 76.7563 13.856 77.4043 13.856C78.3523 13.856 79.1143 14.042 79.6903 14.414C80.2663 14.786 80.6443 15.236 80.8243 15.764H80.5363Z" fill="white"/>
<path d="M12 7L12.449 8.38197H13.9021L12.7265 9.23607L13.1756 10.618L12 9.76393L10.8244 10.618L11.2735 9.23607L10.0979 8.38197H11.551L12 7Z" fill="white"/>
<path d="M7 10L7.22451 10.691H7.95106L7.36327 11.118L7.58779 11.809L7 11.382L6.41221 11.809L6.63673 11.118L6.04894 10.691H6.77549L7 10Z" fill="white"/>
<path d="M7.5 5L7.61226 5.34549H7.97553L7.68164 5.55902L7.79389 5.90451L7.5 5.69098L7.20611 5.90451L7.31836 5.55902L7.02447 5.34549H7.38774L7.5 5Z" fill="white"/>
<path d="M14 3L14.2245 3.69098H14.9511L14.3633 4.11803L14.5878 4.80902L14 4.38197L13.4122 4.80902L13.6367 4.11803L13.0489 3.69098H13.7755L14 3Z" fill="white"/>
<path d="M87 24L87.449 25.382H88.9021L87.7265 26.2361L88.1756 27.618L87 26.7639L85.8244 27.618L86.2735 26.2361L85.0979 25.382H86.551L87 24Z" fill="white"/>
<defs>
<linearGradient id="paint0_linear_1_20" x1="-30.6087" y1="-19.04" x2="130.448" y2="46.724" gradientUnits="userSpaceOnUse">
<stop stop-color="#CE0000"/>
<stop offset="0.47" stop-color="#E37400"/>
<stop offset="1" stop-color="#FBF600"/>
</linearGradient>
</defs>
</svg>
