<svg width="41" height="34" viewBox="0 0 41 34" fill="none" xmlns="http://www.w3.org/2000/svg">
<rect width="41" height="34" rx="17" fill="url(#paint0_linear_3_20)"/>
<path d="M21.802 23C21.466 22.016 21.022 20.786 20.47 19.31C20.422 19.142 20.356 18.95 20.272 18.734H15.7L14.17 23H13.72L18.22 10.4H19.066C20.926 15.572 22.51 19.772 23.818 23H21.802ZM15.844 18.32H20.11C19.486 16.628 18.754 14.69 17.914 12.506L15.844 18.32ZM27.1233 10.4C27.0753 12.092 27.0513 14.192 27.0513 16.7C27.0513 19.184 27.0753 21.284 27.1233 23H25.2513C25.3113 20.864 25.3413 18.764 25.3413 16.7C25.3413 14.624 25.3113 12.524 25.2513 10.4H27.1233Z" fill="white"/>
<path d="M10 5L10.449 6.38197H11.9021L10.7265 7.23607L11.1756 8.61803L10 7.76393L8.82443 8.61803L9.27346 7.23607L8.09789 6.38197H9.55097L10 5Z" fill="white"/>
<path d="M31 24L31.449 25.382H32.9021L31.7265 26.2361L32.1756 27.618L31 26.7639L29.8244 27.618L30.2735 26.2361L29.0979 25.382H30.551L31 24Z" fill="white"/>
<path d="M34 13L34.2245 13.691H34.9511L34.3633 14.118L34.5878 14.809L34 14.382L33.4122 14.809L33.6367 14.118L33.0489 13.691H33.7755L34 13Z" fill="white"/>
<path d="M35 20L35.2245 20.691H35.9511L35.3633 21.118L35.5878 21.809L35 21.382L34.4122 21.809L34.6367 21.118L34.0489 20.691H34.7755L35 20Z" fill="white"/>
<defs>
<linearGradient id="paint0_linear_3_20" x1="-13.0725" y1="-19.04" x2="64.812" y2="-5.45768" gradientUnits="userSpaceOnUse">
<stop stop-color="#0021F5"/>
<stop offset="0.716" stop-color="#0AA2C2"/>
<stop offset="1" stop-color="#12E7FF"/>
</linearGradient>
</defs>
</svg>
