<svg width="24" height="26" viewBox="0 0 24 26" fill="none" xmlns="http://www.w3.org/2000/svg">
<path fill-rule="evenodd" clip-rule="evenodd" d="M10 23.4395C9.7007 23.4395 9.44762 23.3506 9.2239 23.2402C9.02352 23.1413 8.80135 23.0012 8.56674 22.8532L6.62905 21.6312C6.37416 21.4704 6.22825 21.3794 6.11404 21.3222C6.0083 21.2642 5.93256 21.2928 5.9079 21.3144C5.7948 21.3675 5.64376 21.4591 5.37095 21.6312L4.86225 21.9806C4.65149 22.1254 4.39744 22.2928 4.12709 22.4342C3.655 22.6812 2.81435 23.0194 2.05584 22.5309C1.54247 22.2002 1.38152 21.6553 1.3149 21.1765C1.24992 20.7093 1.24996 20.099 1.25 19.3903V8.68921C1.24998 7.30851 1.24997 6.19699 1.36641 5.32307C1.48716 4.4168 1.74526 3.65429 2.34597 3.04814C2.94761 2.44106 3.70602 2.17937 4.60737 2.05709C5.47476 1.93942 6.57745 1.93943 7.94464 1.93945H10H20.016C20.4911 1.93945 20.8802 2.16875 21.1687 2.45035C21.4541 2.72891 21.6847 3.09774 21.8722 3.49951C22.2537 4.3167 22.5229 5.42803 22.6684 6.65381C22.7158 7.05317 22.7614 7.43721 22.7473 7.7617C22.7309 8.13965 22.6325 8.52003 22.3326 8.85463C22.0239 9.19898 21.6366 9.3326 21.2576 9.38928C20.921 9.43958 20.5084 9.43952 20.0646 9.43946L20.016 9.43945H18.75V19.3903C18.75 20.099 18.7501 20.7093 18.6851 21.1765C18.6185 21.6553 18.4575 22.2002 17.9441 22.5309C17.1856 23.0194 16.345 22.6812 15.8729 22.4342C15.6025 22.2928 15.3485 22.1254 15.1377 21.9806L14.629 21.6312C14.3562 21.4591 14.2052 21.3675 14.0921 21.3144C14.0674 21.2928 13.9917 21.2642 13.8859 21.3222C13.7717 21.3794 13.6258 21.4704 13.3709 21.6312L11.4333 22.8531C11.1987 23.0011 10.9765 23.1413 10.7761 23.2402C10.5524 23.3506 10.2993 23.4395 10 23.4395ZM20.121 3.52376C20.0611 3.46534 19.9721 3.46421 19.9121 3.52232C19.8853 3.54855 19.854 3.58281 19.8186 3.62748C19.652 3.83716 19.469 4.18684 19.3014 4.68569C19.0311 5.49007 18.836 6.5754 18.7724 7.81134C18.7702 7.85387 18.7682 7.89657 18.7663 7.93945H20.016C20.5254 7.93945 20.8236 7.93749 21.0358 7.90576C21.2003 7.88117 21.2417 7.85936 21.2487 7.69661C21.2569 7.50868 21.2283 7.2482 21.173 6.78152C21.0404 5.66223 20.7989 4.74637 20.513 4.13392C20.3694 3.82628 20.2313 3.63148 20.121 3.52376ZM10.75 7.68945C10.75 7.27524 10.4142 6.93945 10 6.93945C9.58579 6.93945 9.25 7.27524 9.25 7.68945V8.02304C8.83582 8.11754 8.45427 8.28993 8.13579 8.52879C7.63179 8.90679 7.25 9.48624 7.25 10.1895C7.25 10.8927 7.63179 11.4722 8.13579 11.8502C8.63955 12.228 9.30113 12.4395 10 12.4395C10.4057 12.4395 10.7441 12.5638 10.9642 12.7288C11.1841 12.8937 11.25 13.0643 11.25 13.1895C11.25 13.3147 11.1841 13.4853 10.9642 13.6502C10.7441 13.8152 10.4057 13.9395 10 13.9395C9.33162 13.9395 8.90947 13.6185 8.79224 13.3698C8.61566 12.9951 8.16877 12.8345 7.79408 13.0111C7.41939 13.1876 7.25879 13.6345 7.43537 14.0092C7.76526 14.7092 8.46133 15.1743 9.25 15.355V15.6895C9.25 16.1037 9.58579 16.4395 10 16.4395C10.4142 16.4395 10.75 16.1037 10.75 15.6895V15.3559C11.1642 15.2614 11.5457 15.089 11.8642 14.8502C12.3682 14.4722 12.75 13.8927 12.75 13.1895C12.75 12.4863 12.3682 11.9068 11.8642 11.5288C11.3604 11.151 10.6989 10.9395 10 10.9395C9.5943 10.9395 9.25588 10.8152 9.03579 10.6502C8.81593 10.4853 8.75 10.3147 8.75 10.1895C8.75 10.0642 8.81593 9.89368 9.03579 9.72879C9.25588 9.56372 9.5943 9.43945 10 9.43945C10.6684 9.43945 11.0905 9.76042 11.2078 10.0092C11.3843 10.3839 11.8312 10.5445 12.2059 10.3679C12.5806 10.1914 12.7412 9.74442 12.5646 9.36973C12.2347 8.66972 11.5387 8.2046 10.75 8.02396V7.68945Z" fill="#945FEE"/>
</svg>
