<svg width="40" height="41" viewBox="0 0 40 41" fill="none" xmlns="http://www.w3.org/2000/svg">
<g clip-path="url(#clip0_1_1023)">
<g clip-path="url(#clip1_1_1023)">
<g clip-path="url(#clip2_1_1023)">
<path fill-rule="evenodd" clip-rule="evenodd" d="M0.0922241 20.3888C0.0922247 31.3835 9.00507 40.2962 19.9997 40.2962C30.9942 40.2962 39.907 31.3834 39.907 20.3888C39.907 9.3943 30.9942 0.481445 19.9997 0.481445C9.00507 0.481446 0.0922237 9.3943 0.0922241 20.3888ZM20.8511 20.2732C20.8723 20.3201 20.8881 20.3586 20.8998 20.3891C20.8881 20.4197 20.8723 20.4581 20.8511 20.5049C20.7547 20.7182 20.595 21.0008 20.3655 21.3471C19.9075 22.0382 19.271 22.8354 18.5981 23.6144C17.9318 24.3857 17.2612 25.1034 16.7545 25.6306L15.9243 26.4752C15.1948 27.1918 15.1839 28.3645 15.9004 29.0941C16.617 29.8239 17.7895 29.8345 18.5192 29.1179L19.425 28.1969C19.96 27.6401 20.6783 26.8719 21.4009 26.0355C22.1169 25.2066 22.8692 24.2738 23.4529 23.393C23.7442 22.9534 24.0185 22.4895 24.2259 22.0308C24.4185 21.6047 24.6291 21.0218 24.6291 20.389C24.6291 19.7564 24.4185 19.1735 24.2259 18.7475C24.0185 18.2888 23.7442 17.8249 23.4529 17.3852C22.8692 16.5045 22.1169 15.5717 21.4009 14.7428C20.6783 13.9062 19.96 13.1381 19.425 12.5814L18.5192 11.6604C17.7895 10.9437 16.617 10.9544 15.9004 11.6841C15.1839 12.4138 15.1948 13.5864 15.9243 14.303L16.7545 15.1477C17.2612 15.6749 17.9318 16.3926 18.5981 17.1639C19.271 17.9429 19.9075 18.74 20.3655 19.4311C20.595 19.7775 20.7547 20.06 20.8511 20.2732Z" fill="#945FEE"/>
</g>
</g>
</g>
<defs>
<clipPath id="clip0_1_1023">
<rect width="40" height="40" fill="white" transform="translate(0 0.389648)"/>
</clipPath>
<clipPath id="clip1_1_1023">
<rect width="40" height="40" fill="white" transform="translate(0 0.389648)"/>
</clipPath>
<clipPath id="clip2_1_1023">
<rect width="40" height="40" fill="white" transform="translate(0 0.389648)"/>
</clipPath>
</defs>
</svg>
