<svg width="40" height="41" viewBox="0 0 40 41" fill="none" xmlns="http://www.w3.org/2000/svg">
<path fill-rule="evenodd" clip-rule="evenodd" d="M37.916 20.3893C37.916 10.4942 29.8945 2.47266 19.9993 2.47266C10.1042 2.47266 2.0827 10.4942 2.0827 20.3893C2.0827 30.2844 10.1042 38.3059 19.9993 38.3059C29.8944 38.3059 37.916 30.2844 37.916 20.3893ZM19.233 20.4933C19.2139 20.4511 19.1997 20.4166 19.1892 20.3891C19.1997 20.3616 19.2139 20.3269 19.233 20.2848C19.3198 20.0928 19.4635 19.8385 19.6701 19.5268C20.0822 18.9049 20.6551 18.1874 21.2608 17.4863C21.8604 16.7921 22.464 16.1462 22.9199 15.6718L23.6671 14.9115C24.3238 14.2666 24.3335 13.2112 23.6886 12.5545C23.0437 11.8978 21.9885 11.8882 21.3317 12.5331L20.5165 13.362C20.035 13.8631 19.3885 14.5545 18.7382 15.3074C18.0938 16.0533 17.4168 16.8928 16.8914 17.6855C16.6292 18.0812 16.3823 18.4987 16.1957 18.9115C16.0223 19.295 15.8328 19.8196 15.8328 20.3891C15.8328 20.9585 16.0223 21.4831 16.1957 21.8666C16.3823 22.2794 16.6292 22.6969 16.8914 23.0925C17.4168 23.8853 18.0938 24.7247 18.7382 25.4707C19.3885 26.2236 20.035 26.9149 20.5165 27.416L21.3317 28.245C21.9885 28.8899 23.0437 28.8803 23.6886 28.2235C24.3335 27.5668 24.3238 26.5115 23.6671 25.8665L22.9199 25.1063C22.464 24.6319 21.8604 23.9859 21.2608 23.2917C20.6551 22.5906 20.0822 21.8732 19.6701 21.2512C19.4635 20.9396 19.3198 20.6853 19.233 20.4933Z" fill="#945FEE"/>
</svg>
