<svg width="85" height="60" viewBox="0 0 85 60" fill="none" xmlns="http://www.w3.org/2000/svg">
<g clip-path="url(#clip0_21034_95)">
<path d="M84.55 30.01C84.55 30.01 65.62 60.02 42.28 60.02C18.94 60.02 0 30.01 0 30.01C0 30.01 18.93 0 42.27 0C65.61 0 84.54 30.01 84.54 30.01H84.55Z" fill="#371A5B"/>
<path d="M42.2698 54.77C55.9443 54.77 67.0298 43.6846 67.0298 30.01C67.0298 16.3354 55.9443 5.25 42.2698 5.25C28.5952 5.25 17.5098 16.3354 17.5098 30.01C17.5098 43.6846 28.5952 54.77 42.2698 54.77Z" fill="#BB7CE4"/>
<path d="M42.2698 39.48C47.4999 39.48 51.7398 35.2402 51.7398 30.01C51.7398 24.7799 47.4999 20.54 42.2698 20.54C37.0397 20.54 32.7998 24.7799 32.7998 30.01C32.7998 35.2402 37.0397 39.48 42.2698 39.48Z" fill="#222221"/>
</g>
<defs>
<clipPath id="clip0_21034_95">
<rect width="84.55" height="60.01" fill="white"/>
</clipPath>
</defs>
</svg>
