<svg width="165" height="65" viewBox="0 0 165 65" fill="none" xmlns="http://www.w3.org/2000/svg">
<g clip-path="url(#clip0_21048_176)">
<path d="M33.9887 1.6377C33.9887 10.5772 26.7557 17.814 17.8209 17.814C8.88605 17.814 1.63672 10.5772 1.63672 1.6377" stroke="#BB7CE4" stroke-width="2" stroke-linecap="round" stroke-linejoin="round"/>
<path d="M66.3239 1.6377C66.3239 10.5772 59.0909 17.814 50.1561 17.814C41.2212 17.814 33.9883 10.5772 33.9883 1.6377" stroke="#BB7CE4" stroke-width="2" stroke-linecap="round" stroke-linejoin="round"/>
<path d="M98.6764 1.6377C98.6764 10.5772 91.4435 17.814 82.5086 17.814C73.5738 17.814 66.3408 10.5772 66.3408 1.6377" stroke="#BB7CE4" stroke-width="2" stroke-linecap="round" stroke-linejoin="round"/>
<path d="M131.012 1.6377C131.012 10.5772 123.779 17.814 114.845 17.814C105.91 17.814 98.6768 10.5772 98.6768 1.6377" stroke="#BB7CE4" stroke-width="2" stroke-linecap="round" stroke-linejoin="round"/>
<path d="M163.364 1.6377C163.364 10.5772 156.131 17.814 147.196 17.814C138.261 17.814 131.028 10.5772 131.028 1.6377" stroke="#BB7CE4" stroke-width="2" stroke-linecap="round" stroke-linejoin="round"/>
<path d="M33.9887 24.4121C33.9887 33.3517 26.7557 40.5884 17.8209 40.5884C8.88605 40.5884 1.63672 33.3517 1.63672 24.4121" stroke="#BB7CE4" stroke-width="2" stroke-linecap="round" stroke-linejoin="round"/>
<path d="M66.3239 24.4121C66.3239 33.3517 59.0909 40.5884 50.1561 40.5884C41.2212 40.5884 33.9883 33.3517 33.9883 24.4121" stroke="#BB7CE4" stroke-width="2" stroke-linecap="round" stroke-linejoin="round"/>
<path d="M98.6764 24.4121C98.6764 33.3517 91.4435 40.5884 82.5086 40.5884C73.5738 40.5884 66.3408 33.3517 66.3408 24.4121" stroke="#BB7CE4" stroke-width="2" stroke-linecap="round" stroke-linejoin="round"/>
<path d="M131.012 24.4121C131.012 33.3517 123.779 40.5884 114.845 40.5884C105.91 40.5884 98.6768 33.3517 98.6768 24.4121" stroke="#BB7CE4" stroke-width="2" stroke-linecap="round" stroke-linejoin="round"/>
<path d="M163.364 24.4121C163.364 33.3517 156.131 40.5884 147.196 40.5884C138.261 40.5884 131.028 33.3517 131.028 24.4121" stroke="#BB7CE4" stroke-width="2" stroke-linecap="round" stroke-linejoin="round"/>
<path d="M33.9887 47.1865C33.9887 56.1261 26.7557 63.3628 17.8209 63.3628C8.88605 63.3628 1.63672 56.1261 1.63672 47.1865" stroke="#BB7CE4" stroke-width="2" stroke-linecap="round" stroke-linejoin="round"/>
<path d="M66.3239 47.1865C66.3239 56.1261 59.0909 63.3628 50.1561 63.3628C41.2212 63.3628 33.9883 56.1261 33.9883 47.1865" stroke="#BB7CE4" stroke-width="2" stroke-linecap="round" stroke-linejoin="round"/>
<path d="M98.6764 47.1865C98.6764 56.1261 91.4435 63.3628 82.5086 63.3628C73.5738 63.3628 66.3408 56.1261 66.3408 47.1865" stroke="#BB7CE4" stroke-width="2" stroke-linecap="round" stroke-linejoin="round"/>
<path d="M131.012 47.1865C131.012 56.1261 123.779 63.3628 114.845 63.3628C105.91 63.3628 98.6768 56.1261 98.6768 47.1865" stroke="#BB7CE4" stroke-width="2" stroke-linecap="round" stroke-linejoin="round"/>
<path d="M163.364 47.1865C163.364 56.1261 156.131 63.3628 147.196 63.3628C138.261 63.3628 131.028 56.1261 131.028 47.1865" stroke="#BB7CE4" stroke-width="2" stroke-linecap="round" stroke-linejoin="round"/>
</g>
<defs>
<clipPath id="clip0_21048_176">
<rect width="165" height="65" fill="white"/>
</clipPath>
</defs>
</svg>
