<svg width="80" height="48" viewBox="0 0 80 48" fill="none" xmlns="http://www.w3.org/2000/svg">
<g clip-path="url(#clip0_21034_99)">
<path d="M11.4634 0C9.98891 11.2266 6.37472 19.3377 0 22.4969C7.08426 27.5145 10.2661 36.7078 11.4634 47.9891V0Z" fill="#BB7CE4"/>
<path d="M11.3301 48C12.8046 36.7734 16.4188 28.6623 22.7935 25.5031C15.7092 20.4746 12.5274 11.2922 11.3301 0V48Z" fill="#BB7CE4"/>
<path d="M30.5318 0C29.0573 11.2266 25.4431 19.3377 19.0684 22.4969C26.1526 27.5145 29.3344 36.7078 30.5318 47.9891V0Z" fill="#BB7CE4"/>
<path d="M30.3984 47.9998C31.8729 36.7732 35.4871 28.6621 41.8619 25.5029C34.7776 20.4853 31.5958 11.292 30.3984 0.0107422V48.0107V47.9998Z" fill="#BB7CE4"/>
<path d="M49.6011 0C48.1266 11.2266 44.5124 19.3377 38.1377 22.4969C45.222 27.5145 48.4038 36.7078 49.6011 47.9891V0Z" fill="#BB7CE4"/>
<path d="M49.4678 47.9998C50.9423 36.7732 54.5565 28.6621 60.9312 25.5029C53.8469 20.4853 50.6651 11.292 49.4678 0.0107422V48.0107V47.9998Z" fill="#BB7CE4"/>
<path d="M68.6695 0C67.195 11.2266 63.5808 19.3377 57.2061 22.4969C64.2903 27.5145 67.4721 36.7078 68.6695 47.9891V0Z" fill="#BB7CE4"/>
<path d="M68.5361 47.9998C70.0106 36.7732 73.6248 28.6621 79.9996 25.5029C72.9153 20.4853 69.7335 11.292 68.5361 0.0107422V48.0107V47.9998Z" fill="#BB7CE4"/>
</g>
<defs>
<clipPath id="clip0_21034_99">
<rect width="80" height="48" fill="white"/>
</clipPath>
</defs>
</svg>
