<svg width="90" height="68" viewBox="0 0 90 68" fill="none" xmlns="http://www.w3.org/2000/svg">
<g clip-path="url(#clip0_21060_126)">
<path d="M23.647 2.96695C19.3171 13.4294 13.7268 20.3287 6.75159 21.7304C12.2958 28.4105 12.9898 38.1141 11.2265 49.3208L23.647 2.96695Z" fill="#BB7CE4"/>
<path d="M11.0952 49.2971C15.4252 38.8346 21.0155 31.9353 27.9907 30.5336C22.4493 23.843 21.7525 14.1499 23.5186 2.93262L11.0952 49.2971Z" fill="#BB7CE4"/>
<path d="M42.066 7.9025C37.7361 18.3649 32.1457 25.2643 25.1705 26.6659C30.7148 33.346 31.4087 43.0496 29.6455 54.2564L42.066 7.9025Z" fill="#BB7CE4"/>
<path d="M29.5141 54.2318C33.844 43.7694 39.4344 36.87 46.4095 35.4684C40.8653 28.7883 40.1713 19.0847 41.9346 7.87793L29.5113 54.2424L29.5141 54.2318Z" fill="#BB7CE4"/>
<path d="M60.4849 12.838C56.155 23.3005 50.5646 30.1998 43.5895 31.6015C49.1337 38.2816 49.8277 47.9852 48.0644 59.1919L60.4849 12.838Z" fill="#BB7CE4"/>
<path d="M47.933 59.1674C52.2629 48.7049 57.8533 41.8056 64.8285 40.4039C59.2842 33.7238 58.5903 24.0202 60.3535 12.8135L47.9302 59.1779L47.933 59.1674Z" fill="#BB7CE4"/>
<path d="M78.9039 17.7726C74.5739 28.235 68.9836 35.1344 62.0084 36.536C67.5527 43.2161 68.2466 52.9197 66.4834 64.1265L78.9039 17.7726Z" fill="#BB7CE4"/>
<path d="M66.352 64.1019C70.6819 53.6395 76.2723 46.7402 83.2474 45.3385C77.7032 38.6584 77.0092 28.9548 78.7725 17.748L66.3491 64.1125L66.352 64.1019Z" fill="#BB7CE4"/>
</g>
<defs>
<clipPath id="clip0_21060_126">
<rect width="80" height="48" fill="white" transform="translate(12.5742) rotate(15)"/>
</clipPath>
</defs>
</svg>
