<svg width="64" height="64" viewBox="0 0 64 64" fill="none" xmlns="http://www.w3.org/2000/svg">
<g clip-path="url(#clip0_21034_112)">
<path d="M63.27 31.63C63.27 30.61 63.22 29.6 63.12 28.6H48.43L62.2 23.47C61.67 21.5 60.97 19.6 60.09 17.8L43.61 23.94L56.04 11.5C54.75 9.94 53.32 8.51 51.76 7.22L41.37 17.61L47.48 4.25C45.74 3.24 43.9 2.4 41.98 1.73L34.67 17.72V0.15C33.67 0.06 32.66 0 31.64 0C30.62 0 29.61 0.05 28.61 0.15V14.84L23.48 1.07C21.51 1.6 19.61 2.3 17.81 3.18L23.95 19.66L11.51 7.23C9.95 8.52 8.52 9.95 7.23 11.51L17.62 21.9L4.26 15.79C3.25 17.53 2.41 19.37 1.74 21.29L17.73 28.6H0.15C0.06 29.6 0 30.61 0 31.63C0 32.65 0.05 33.66 0.15 34.66H14.84L1.07 39.79C1.6 41.76 2.3 43.66 3.18 45.46L19.66 39.32L7.23 51.75C8.52 53.31 9.95 54.74 11.51 56.03L21.9 45.64L15.79 59C17.53 60.01 19.37 60.85 21.29 61.52L28.6 45.53V63.11C29.6 63.2 30.61 63.26 31.63 63.26C32.65 63.26 33.66 63.21 34.66 63.11V48.42L39.79 62.19C41.76 61.66 43.66 60.96 45.46 60.08L39.32 43.6L51.75 56.03C53.31 54.74 54.74 53.31 56.03 51.75L45.64 41.36L59 47.47C60.01 45.73 60.85 43.89 61.52 41.97L45.53 34.66H63.11C63.2 33.66 63.26 32.65 63.26 31.63H63.27Z" fill="#BB7CE4"/>
<path d="M34.2374 42.6262C40.3096 41.1852 44.0639 35.0946 42.6229 29.0224C41.1819 22.9502 35.0912 19.1959 29.0191 20.6369C22.9469 22.0779 19.1926 28.1686 20.6336 34.2407C22.0746 40.3129 28.1652 44.0672 34.2374 42.6262Z" fill="#222221"/>
</g>
<defs>
<clipPath id="clip0_21034_112">
<rect width="63.27" height="63.27" fill="white"/>
</clipPath>
</defs>
</svg>
