<svg width="96" height="85" viewBox="0 0 96 85" fill="none" xmlns="http://www.w3.org/2000/svg">
<g style="mix-blend-mode:multiply">
<path d="M42.6901 0.760477C42.4553 16.9184 42.9412 33.0871 44.1751 49.1961C61.4009 49.7014 78.7576 49.7394 95.9997 49.2993C95.9561 36.2437 91.3643 23.1718 82.3666 13.7292C72.3587 3.22708 56.831 -2.08101 42.6901 0.760477Z" fill="#BB7CE4"/>
</g>
<g style="mix-blend-mode:multiply">
<path d="M62.1546 45.1099C58.3327 34.999 49.1602 27.5123 38.9394 24.774C36.3897 24.0895 33.7472 23.682 31.121 23.8287C20.1577 23.1441 6.71559 31.4349 2.48969 40.6874C-2.57702 51.7817 0.420418 65.7338 8.40813 74.845C12.2518 79.2294 17.2203 82.674 22.7893 84.1246C29.9417 85.9936 38.6665 84.6734 45.5677 82.0003C49.728 80.3867 52.6873 78.132 55.9741 75.0569C63.7762 67.7494 65.9765 55.2208 62.1546 45.1154V45.1099ZM39.4854 60.844C38.459 61.8057 37.5363 62.512 36.2368 63.0118C34.0802 63.8485 31.3558 64.256 29.1227 63.6746C27.3865 63.2183 25.8304 62.1425 24.6347 60.7734C22.1396 57.9319 21.2059 53.5746 22.7893 50.1083C24.1106 47.2179 28.3037 44.6318 31.7325 44.8437C32.5515 44.8002 33.3759 44.9252 34.173 45.1371C37.367 45.9901 40.228 48.3317 41.4237 51.4883C42.6139 54.6449 41.9314 58.5567 39.4909 60.8386L39.4854 60.844Z" fill="#371A5B"/>
</g>
</svg>
