<svg width="56" height="56" viewBox="0 0 56 56" fill="none" xmlns="http://www.w3.org/2000/svg">
<g clip-path="url(#clip0_21034_115)">
<path d="M9.39005 28.5508H0V38.0676H9.39005V28.5508Z" fill="#371A5B"/>
<path d="M18.5229 37.8066H9.13281V47.3235H18.5229V37.8066Z" fill="#BB7CE4"/>
<path d="M9.64786 9.77832H0.257812V19.2952H9.64786V9.77832Z" fill="#BB7CE4"/>
<path d="M18.7807 19.0342H9.39062V28.551H18.7807V19.0342Z" fill="#371A5B"/>
<path d="M27.9125 28.29H18.5225V37.8069H27.9125V28.29Z" fill="#BB7CE4"/>
<path d="M37.0453 37.5459H27.6553V47.0628H37.0453V37.5459Z" fill="#371A5B"/>
<path d="M19.0375 0.260742H9.64746V9.77759H19.0375V0.260742Z" fill="#BB7CE4"/>
<path d="M28.1693 9.5166H18.7793V19.0335H28.1693V9.5166Z" fill="#371A5B"/>
<path d="M37.3031 18.7725H27.9131V28.2893H37.3031V18.7725Z" fill="#BB7CE4"/>
<path d="M46.435 28.0283H37.0449V37.5452H46.435V28.0283Z" fill="#371A5B"/>
<path d="M9.39005 47.4072H0V56.9241H9.39005V47.4072Z" fill="#371A5B"/>
<path d="M27.9125 47.1465H18.5225V56.6633H27.9125V47.1465Z" fill="#371A5B"/>
<path d="M46.435 46.8848H37.0449V56.4016H46.435V46.8848Z" fill="#BB7CE4"/>
<path d="M37.5609 0H28.1709V9.51685H37.5609V0Z" fill="#371A5B"/>
<path d="M55.477 37.5459H46.0869V47.0628H55.477V37.5459Z" fill="#BB7CE4"/>
<path d="M55.7338 18.7725H46.3438V28.2893H55.7338V18.7725Z" fill="#371A5B"/>
<path d="M56.0004 0H46.6104V9.51685H56.0004V0Z" fill="#371A5B"/>
<path d="M46.6938 9.25586H37.3037V18.7727H46.6938V9.25586Z" fill="#BB7CE4"/>
</g>
<defs>
<clipPath id="clip0_21034_115">
<rect width="56" height="56" fill="white"/>
</clipPath>
</defs>
</svg>
