<svg width="22" height="23" viewBox="0 0 22 23" fill="none" xmlns="http://www.w3.org/2000/svg">
<path fill-rule="evenodd" clip-rule="evenodd" d="M11 22.1101C5.06294 22.1101 0.25 17.2972 0.25 11.3601C0.25 5.42305 5.06294 0.610107 11 0.610107C16.9371 0.610107 21.75 5.42305 21.75 11.3601C21.75 17.2972 16.9371 22.1101 11 22.1101ZM12.2841 6.60595C12.0018 6.03399 11.5598 5.61011 10.9986 5.61011C10.438 5.61011 9.9946 6.03322 9.7097 6.6047L8.76811 8.50347L8.76667 8.5064C8.73804 8.56534 8.67012 8.64834 8.56843 8.72437C8.46693 8.80025 8.36877 8.84153 8.30628 8.85237L6.60118 9.13801C5.98455 9.24161 5.46905 9.54401 5.30236 10.0703C5.13616 10.5951 5.38082 11.1408 5.82111 11.5847L7.14739 12.9219C7.19992 12.9749 7.25876 13.0747 7.29566 13.2047C7.33232 13.3338 7.33557 13.4513 7.31895 13.5273L7.31872 13.5284L6.93962 15.1811C6.78186 15.8685 6.8366 16.5495 7.3215 16.9062C7.80845 17.2645 8.473 17.1086 9.0768 16.7474L10.6728 15.7947L10.6738 15.7942C10.7453 15.7525 10.8631 15.7205 11.0013 15.7205C11.1405 15.7205 11.2558 15.753 11.3229 15.7931L12.9221 16.7476C13.5266 17.1076 14.192 17.2662 14.6789 16.9083C15.1641 16.5517 15.2162 15.8694 15.059 15.1814L14.6798 13.5284L14.6796 13.5273C14.6629 13.4513 14.6662 13.3338 14.7028 13.2047C14.7397 13.0747 14.7986 12.9749 14.8511 12.9219L16.1764 11.5857C16.6195 11.1418 16.8655 10.5952 16.6979 10.0696C16.5302 9.54361 16.0137 9.24161 15.3975 9.13801L13.6915 8.85226C13.626 8.84125 13.5264 8.79949 13.4246 8.72381C13.3228 8.64804 13.2551 8.56522 13.2265 8.5064L12.2841 6.60595Z" fill="#945FEE"/>
</svg>
