<svg width="107" height="34" viewBox="0 0 107 34" fill="none" xmlns="http://www.w3.org/2000/svg">
<rect width="107" height="34" rx="17" fill="url(#paint0_linear_3_13)"/>
<path d="M28.862 10.796H24.236C24.188 13.196 24.164 15.14 24.164 16.628C24.164 18.716 24.194 20.84 24.254 23H22.382C22.442 20.84 22.472 18.716 22.472 16.628C22.472 15.14 22.448 13.196 22.4 10.796H17.72V10.4H28.862V10.796ZM30.9542 13.874C31.0502 13.862 31.1882 13.856 31.3682 13.856C32.3522 13.856 33.2042 14.084 33.9242 14.54C34.6562 14.996 35.2082 15.59 35.5802 16.322C35.9642 17.054 36.1562 17.828 36.1562 18.644C36.1562 19.424 35.9762 20.15 35.6162 20.822C35.2682 21.494 34.7282 22.04 33.9962 22.46C33.2762 22.868 32.3942 23.072 31.3502 23.072C30.3542 23.072 29.4902 22.85 28.7582 22.406C28.0382 21.95 27.4862 21.362 27.1022 20.642C26.7302 19.922 26.5442 19.154 26.5442 18.338C26.5442 17.594 26.7062 16.898 27.0302 16.25C27.3662 15.59 27.8642 15.044 28.5242 14.612C29.1962 14.18 30.0062 13.934 30.9542 13.874ZM31.1342 14.09C30.4982 14.09 29.9582 14.282 29.5142 14.666C29.0822 15.038 28.7522 15.53 28.5242 16.142C28.3082 16.754 28.2002 17.414 28.2002 18.122C28.2002 18.914 28.3322 19.67 28.5962 20.39C28.8602 21.11 29.2502 21.698 29.7662 22.154C30.2822 22.598 30.9002 22.82 31.6202 22.82C32.5802 22.82 33.3062 22.454 33.7982 21.722C34.3022 20.99 34.5542 20.09 34.5542 19.022C34.5542 18.218 34.4102 17.438 34.1222 16.682C33.8462 15.914 33.4502 15.29 32.9342 14.81C32.4182 14.33 31.8182 14.09 31.1342 14.09ZM42.5324 13.838C43.4444 13.838 44.2304 14.06 44.8904 14.504C45.5624 14.936 46.0664 15.512 46.4024 16.232C46.7504 16.94 46.9244 17.696 46.9244 18.5C46.9244 19.304 46.7444 20.06 46.3844 20.768C46.0364 21.464 45.5084 22.028 44.8004 22.46C44.1044 22.892 43.2524 23.108 42.2444 23.108C41.5844 23.108 41.0144 23.018 40.5344 22.838C40.0664 22.646 39.6944 22.436 39.4184 22.208C39.4184 23.732 39.4424 25.526 39.4904 27.59H37.6184C37.6784 25.466 37.7084 23.198 37.7084 20.786C37.7084 18.374 37.6784 16.106 37.6184 13.982H39.4904L39.4544 15.188C40.1744 14.288 41.2004 13.838 42.5324 13.838ZM42.0644 22.748C42.7244 22.7 43.2884 22.472 43.7564 22.064C44.2244 21.656 44.5724 21.134 44.8004 20.498C45.0404 19.862 45.1604 19.184 45.1604 18.464C45.1604 17.732 45.0404 17.042 44.8004 16.394C44.5604 15.734 44.2004 15.206 43.7204 14.81C43.2524 14.402 42.6944 14.198 42.0464 14.198C41.4344 14.198 40.9124 14.354 40.4804 14.666C40.0604 14.966 39.7184 15.314 39.4544 15.71C39.4304 17.534 39.4184 18.998 39.4184 20.102V21.776C39.6704 22.052 40.0124 22.298 40.4444 22.514C40.8884 22.73 41.4284 22.808 42.0644 22.748ZM48.3587 17.78V17.078H53.1287V17.78H48.3587ZM65.7058 10.796H61.0798C61.0318 13.196 61.0078 15.14 61.0078 16.628C61.0078 18.716 61.0378 20.84 61.0978 23H59.2258C59.2858 20.84 59.3158 18.716 59.3158 16.628C59.3158 15.14 59.2918 13.196 59.2438 10.796H54.5638V10.4H65.7058V10.796ZM68.1753 9.878C68.4393 9.878 68.6673 9.98 68.8593 10.184C69.0513 10.376 69.1473 10.61 69.1473 10.886C69.1473 11.15 69.0513 11.378 68.8593 11.57C68.6673 11.762 68.4393 11.858 68.1753 11.858C67.8993 11.858 67.6593 11.762 67.4553 11.57C67.2633 11.378 67.1673 11.15 67.1673 10.886C67.1673 10.61 67.2633 10.376 67.4553 10.184C67.6593 9.98 67.8993 9.878 68.1753 9.878ZM67.2933 23C67.3293 21.488 67.3473 19.988 67.3473 18.5C67.3473 16.988 67.3293 15.488 67.2933 14H69.1653C69.1173 15.5 69.0933 17.192 69.0933 19.076C69.0933 19.94 69.1053 21.248 69.1293 23H67.2933ZM76.2093 22.514C76.9893 22.514 77.6253 22.316 78.1173 21.92C78.6093 21.512 78.9393 21.014 79.1073 20.426H79.3773C79.1973 21.098 78.8253 21.686 78.2613 22.19C77.6973 22.682 76.9473 22.97 76.0113 23.054C75.7233 23.078 75.5133 23.09 75.3813 23.09C74.3733 23.09 73.5093 22.88 72.7893 22.46C72.0813 22.028 71.5473 21.47 71.1873 20.786C70.8393 20.09 70.6653 19.346 70.6653 18.554C70.6653 17.75 70.8453 16.994 71.2053 16.286C71.5773 15.566 72.1233 14.984 72.8433 14.54C73.5753 14.096 74.4453 13.874 75.4533 13.874C76.3653 13.874 77.1153 14.054 77.7033 14.414C78.2913 14.774 78.7173 15.218 78.9813 15.746C79.2573 16.262 79.3953 16.772 79.3953 17.276L79.4133 17.618L72.3573 17.978C72.3453 18.746 72.4833 19.478 72.7713 20.174C73.0593 20.87 73.4973 21.434 74.0853 21.866C74.6733 22.298 75.3813 22.514 76.2093 22.514ZM75.5253 14.108C74.6013 14.108 73.8633 14.45 73.3113 15.134C72.7593 15.806 72.4473 16.64 72.3753 17.636L78.1353 17.348C78.1353 16.748 77.9733 16.064 77.6493 15.296C77.3373 14.516 76.6293 14.12 75.5253 14.108ZM85.1124 13.154C85.3164 13.106 85.5504 13.082 85.8144 13.082C86.4504 13.082 87.0024 13.25 87.4704 13.586C87.9384 13.922 88.2444 14.414 88.3884 15.062H86.7324C86.6364 14.57 86.4384 14.216 86.1384 14C85.8504 13.784 85.5024 13.676 85.0944 13.676C84.5184 13.676 84.0144 13.85 83.5824 14.198C83.1624 14.534 82.8144 14.918 82.5384 15.35C82.5144 17.054 82.5024 18.326 82.5024 19.166C82.5024 20.018 82.5144 21.296 82.5384 23H80.7024C80.7384 21.488 80.7564 19.988 80.7564 18.5C80.7564 16.988 80.7384 15.488 80.7024 14H82.5744C82.5624 14.216 82.5564 14.534 82.5564 14.954C82.8084 14.57 83.1504 14.204 83.5824 13.856C84.0144 13.496 84.5244 13.262 85.1124 13.154Z" fill="white"/>
<path d="M13 26L13.449 27.382H14.9021L13.7265 28.2361L14.1756 29.618L13 28.7639L11.8244 29.618L12.2735 28.2361L11.0979 27.382H12.551L13 26Z" fill="white"/>
<path d="M96.8597 9.2316L98.2662 8.86654L98.3536 7.41608L99.1355 8.64091L100.542 8.27584L99.6187 9.3979L100.4 10.6227L99.048 10.0914L98.1248 11.2134L98.2122 9.76297L96.8597 9.2316Z" fill="white"/>
<path d="M86.0602 5.57522L86.7634 5.39269L86.8071 4.66746L87.198 5.27988L87.9013 5.09734L87.4396 5.65837L87.8305 6.27078L87.1543 6.0051L86.6927 6.56613L86.7364 5.8409L86.0602 5.57522Z" fill="white"/>
<path d="M93.1077 4.9982L93.8109 4.81566L93.8546 4.09043L94.2455 4.70285L94.9488 4.52031L94.4871 5.08134L94.878 5.69376L94.2018 5.42808L93.7402 5.9891L93.7839 5.26388L93.1077 4.9982Z" fill="white"/>
<defs>
<linearGradient id="paint0_linear_3_13" x1="-34.1159" y1="-19.04" x2="139.387" y2="59.9242" gradientUnits="userSpaceOnUse">
<stop stop-color="#F500CC"/>
<stop offset="0.766" stop-color="#360A4B"/>
</linearGradient>
</defs>
</svg>
